<svg xmlns="http://www.w3.org/2000/svg" xmlns:xlink="http://www.w3.org/1999/xlink" width="100" zoomAndPan="magnify" viewBox="0 0 75 74.999997" height="100" preserveAspectRatio="xMidYMid meet" version="1.0"><defs><clipPath id="782e01b150"><path d="M 58 27 L 74.25 27 L 74.25 44 L 58 44 Z M 58 27 " clip-rule="nonzero"/></clipPath><clipPath id="08f8956460"><path d="M 0 54 L 74.25 54 L 74.25 59.851562 L 0 59.851562 Z M 0 54 " clip-rule="nonzero"/></clipPath><clipPath id="e81a389619"><path d="M 0 11.851562 L 74.25 11.851562 L 74.25 18 L 0 18 Z M 0 11.851562 " clip-rule="nonzero"/></clipPath></defs><path fill="#000000" d="M 47.726562 35.851562 C 47.726562 36.375 47.675781 36.894531 47.574219 37.410156 C 47.472656 37.925781 47.320312 38.425781 47.121094 38.910156 C 46.921875 39.398438 46.675781 39.859375 46.386719 40.292969 C 46.09375 40.730469 45.765625 41.136719 45.398438 41.507812 C 45.027344 41.878906 44.625 42.210938 44.191406 42.5 C 43.757812 42.792969 43.300781 43.039062 42.816406 43.242188 C 42.335938 43.441406 41.839844 43.59375 41.324219 43.695312 C 40.8125 43.796875 40.296875 43.851562 39.773438 43.851562 C 39.253906 43.851562 38.734375 43.796875 38.222656 43.695312 C 37.710938 43.59375 37.214844 43.441406 36.734375 43.242188 C 36.25 43.039062 35.792969 42.792969 35.359375 42.5 C 34.925781 42.210938 34.523438 41.878906 34.152344 41.507812 C 33.785156 41.136719 33.453125 40.730469 33.164062 40.292969 C 32.875 39.859375 32.628906 39.398438 32.429688 38.910156 C 32.230469 38.425781 32.078125 37.925781 31.976562 37.410156 C 31.875 36.894531 31.824219 36.375 31.824219 35.851562 C 31.824219 35.324219 31.875 34.804688 31.976562 34.289062 C 32.078125 33.773438 32.230469 33.273438 32.429688 32.789062 C 32.628906 32.304688 32.875 31.84375 33.164062 31.40625 C 33.453125 30.96875 33.785156 30.566406 34.152344 30.191406 C 34.523438 29.820312 34.925781 29.488281 35.359375 29.199219 C 35.792969 28.90625 36.25 28.660156 36.734375 28.457031 C 37.214844 28.257812 37.710938 28.105469 38.222656 28.003906 C 38.734375 27.902344 39.253906 27.851562 39.773438 27.851562 C 40.296875 27.851562 40.8125 27.902344 41.324219 28.003906 C 41.839844 28.105469 42.335938 28.257812 42.816406 28.457031 C 43.300781 28.660156 43.757812 28.90625 44.191406 29.199219 C 44.625 29.488281 45.027344 29.820312 45.398438 30.191406 C 45.765625 30.566406 46.09375 30.96875 46.386719 31.40625 C 46.675781 31.84375 46.921875 32.304688 47.121094 32.789062 C 47.320312 33.273438 47.472656 33.773438 47.574219 34.289062 C 47.675781 34.804688 47.726562 35.324219 47.726562 35.851562 Z M 47.726562 35.851562 " fill-opacity="1" fill-rule="nonzero"/><g clip-path="url(#782e01b150)"><path fill="#000000" d="M 74.226562 35.851562 C 74.226562 36.375 74.175781 36.894531 74.074219 37.410156 C 73.972656 37.925781 73.820312 38.425781 73.621094 38.910156 C 73.421875 39.398438 73.175781 39.859375 72.886719 40.292969 C 72.597656 40.730469 72.265625 41.136719 71.898438 41.507812 C 71.527344 41.878906 71.128906 42.210938 70.691406 42.5 C 70.257812 42.792969 69.800781 43.039062 69.320312 43.242188 C 68.835938 43.441406 68.339844 43.59375 67.828125 43.695312 C 67.316406 43.796875 66.796875 43.851562 66.277344 43.851562 C 65.753906 43.851562 65.238281 43.796875 64.726562 43.695312 C 64.214844 43.59375 63.714844 43.441406 63.234375 43.242188 C 62.75 43.039062 62.292969 42.792969 61.859375 42.5 C 61.425781 42.210938 61.023438 41.878906 60.65625 41.507812 C 60.285156 41.136719 59.957031 40.730469 59.664062 40.292969 C 59.375 39.859375 59.132812 39.398438 58.929688 38.910156 C 58.730469 38.425781 58.582031 37.925781 58.480469 37.410156 C 58.375 36.894531 58.324219 36.375 58.324219 35.851562 C 58.324219 35.324219 58.375 34.804688 58.480469 34.289062 C 58.582031 33.773438 58.730469 33.273438 58.929688 32.789062 C 59.132812 32.304688 59.375 31.84375 59.664062 31.40625 C 59.957031 30.96875 60.285156 30.566406 60.65625 30.191406 C 61.023438 29.820312 61.425781 29.488281 61.859375 29.199219 C 62.292969 28.90625 62.75 28.660156 63.234375 28.457031 C 63.714844 28.257812 64.214844 28.105469 64.726562 28.003906 C 65.238281 27.902344 65.753906 27.851562 66.277344 27.851562 C 66.796875 27.851562 67.316406 27.902344 67.828125 28.003906 C 68.339844 28.105469 68.835938 28.257812 69.320312 28.457031 C 69.800781 28.660156 70.257812 28.90625 70.691406 29.199219 C 71.128906 29.488281 71.527344 29.820312 71.898438 30.191406 C 72.265625 30.566406 72.597656 30.96875 72.886719 31.40625 C 73.175781 31.84375 73.421875 32.304688 73.621094 32.789062 C 73.820312 33.273438 73.972656 33.773438 74.074219 34.289062 C 74.175781 34.804688 74.226562 35.324219 74.226562 35.851562 Z M 74.226562 35.851562 " fill-opacity="1" fill-rule="nonzero"/></g><path fill="#000000" d="M 21.222656 35.851562 C 21.222656 36.550781 21.15625 37.242188 21.019531 37.929688 C 20.886719 38.617188 20.683594 39.285156 20.417969 39.933594 C 20.152344 40.578125 19.824219 41.195312 19.4375 41.777344 C 19.050781 42.359375 18.613281 42.898438 18.121094 43.390625 C 17.628906 43.886719 17.09375 44.328125 16.511719 44.71875 C 15.933594 45.109375 15.324219 45.4375 14.679688 45.703125 C 14.039062 45.972656 13.375 46.175781 12.691406 46.3125 C 12.007812 46.449219 11.320312 46.515625 10.625 46.515625 C 9.929688 46.515625 9.238281 46.449219 8.554688 46.3125 C 7.875 46.175781 7.210938 45.972656 6.566406 45.703125 C 5.925781 45.4375 5.3125 45.109375 4.734375 44.71875 C 4.15625 44.328125 3.621094 43.886719 3.128906 43.390625 C 2.636719 42.898438 2.195312 42.359375 1.808594 41.777344 C 1.421875 41.195312 1.097656 40.578125 0.832031 39.933594 C 0.5625 39.285156 0.363281 38.617188 0.226562 37.929688 C 0.0898438 37.242188 0.0234375 36.550781 0.0234375 35.851562 C 0.0234375 35.148438 0.0898438 34.457031 0.226562 33.769531 C 0.363281 33.082031 0.5625 32.414062 0.832031 31.769531 C 1.097656 31.121094 1.421875 30.507812 1.808594 29.925781 C 2.195312 29.339844 2.636719 28.804688 3.128906 28.308594 C 3.621094 27.8125 4.15625 27.371094 4.734375 26.980469 C 5.3125 26.59375 5.925781 26.261719 6.566406 25.996094 C 7.210938 25.726562 7.875 25.523438 8.554688 25.386719 C 9.238281 25.25 9.929688 25.183594 10.625 25.183594 C 11.320312 25.183594 12.007812 25.25 12.691406 25.386719 C 13.375 25.523438 14.039062 25.726562 14.679688 25.996094 C 15.324219 26.261719 15.933594 26.59375 16.511719 26.980469 C 17.09375 27.371094 17.628906 27.8125 18.121094 28.308594 C 18.613281 28.804688 19.050781 29.339844 19.4375 29.925781 C 19.824219 30.507812 20.152344 31.121094 20.417969 31.769531 C 20.683594 32.414062 20.886719 33.082031 21.019531 33.769531 C 21.15625 34.457031 21.222656 35.148438 21.222656 35.851562 Z M 21.222656 35.851562 " fill-opacity="1" fill-rule="nonzero"/><g clip-path="url(#08f8956460)"><path fill="#000000" d="M 71.578125 59.851562 L 2.671875 59.851562 C 1.082031 59.851562 0.0234375 58.785156 0.0234375 57.183594 C 0.0234375 55.582031 1.082031 54.515625 2.671875 54.515625 L 71.578125 54.515625 C 73.167969 54.515625 74.226562 55.582031 74.226562 57.183594 C 74.226562 58.785156 73.167969 59.851562 71.578125 59.851562 Z M 71.578125 59.851562 " fill-opacity="1" fill-rule="nonzero"/></g><g clip-path="url(#e81a389619)"><path fill="#000000" d="M 71.578125 17.183594 L 2.671875 17.183594 C 1.082031 17.183594 0.0234375 16.117188 0.0234375 14.515625 C 0.0234375 12.917969 1.082031 11.851562 2.671875 11.851562 L 71.578125 11.851562 C 73.167969 11.851562 74.226562 12.917969 74.226562 14.515625 C 74.226562 16.117188 73.167969 17.183594 71.578125 17.183594 Z M 71.578125 17.183594 " fill-opacity="1" fill-rule="nonzero"/></g></svg>