<svg xmlns="http://www.w3.org/2000/svg" xmlns:xlink="http://www.w3.org/1999/xlink" width="100" zoomAndPan="magnify" viewBox="0 0 75 74.999997" height="100" preserveAspectRatio="xMidYMid meet" version="1.0"><defs><clipPath id="0edd8c17ff"><path d="M 0 8.765625 L 75 8.765625 L 75 66.515625 L 0 66.515625 Z M 0 8.765625 " clip-rule="nonzero"/></clipPath></defs><rect x="-7.5" width="90" fill="#ffffff" y="-7.5" height="89.999996" fill-opacity="1"/><rect x="-7.5" width="90" fill="#ffffff" y="-7.5" height="89.999996" fill-opacity="1"/><g clip-path="url(#0edd8c17ff)"><path fill="#000000" d="M 2.011719 8.882812 L 29.710938 8.882812 C 30.441406 8.882812 31.066406 9.335938 31.332031 9.96875 L 44.828125 36.855469 C 45.085938 37.375 45.070312 37.957031 44.828125 38.4375 L 31.269531 65.441406 C 30.964844 66.054688 30.351562 66.40625 29.710938 66.40625 L 2.011719 66.40625 C 1.042969 66.40625 0.257812 65.621094 0.257812 64.648438 C 0.257812 64.316406 0.351562 64.007812 0.507812 63.746094 L 13.609375 37.648438 L 0.453125 11.433594 C 0.015625 10.570312 0.363281 9.511719 1.222656 9.078125 C 1.472656 8.949219 1.742188 8.886719 2.007812 8.886719 L 2.007812 8.882812 Z M 44.003906 8.882812 L 59.625 8.882812 C 60.355469 8.882812 60.980469 9.335938 61.242188 9.96875 L 74.742188 36.855469 C 75 37.375 74.984375 37.957031 74.742188 38.4375 L 61.183594 65.441406 C 60.878906 66.054688 60.261719 66.40625 59.625 66.40625 L 44.003906 66.40625 C 43.039062 66.40625 42.253906 65.621094 42.253906 64.648438 C 42.253906 64.316406 42.347656 64.007812 42.503906 63.746094 L 55.605469 37.648438 L 42.449219 11.433594 C 42.011719 10.570312 42.359375 9.511719 43.21875 9.078125 C 43.46875 8.949219 43.738281 8.886719 44.003906 8.886719 Z M 58.554688 12.402344 L 46.84375 12.402344 L 59.121094 36.855469 C 59.363281 37.339844 59.378906 37.921875 59.121094 38.4375 L 46.84375 62.894531 L 58.554688 62.894531 L 71.226562 37.648438 Z M 28.640625 12.402344 L 4.847656 12.402344 L 17.125 36.855469 C 17.367188 37.339844 17.382812 37.921875 17.125 38.4375 L 4.847656 62.894531 L 28.640625 62.894531 L 41.3125 37.648438 Z M 28.640625 12.402344 " fill-opacity="1" fill-rule="nonzero"/></g></svg>