<svg xmlns="http://www.w3.org/2000/svg" xmlns:xlink="http://www.w3.org/1999/xlink" width="100" zoomAndPan="magnify" viewBox="0 0 75 74.999997" height="100" preserveAspectRatio="xMidYMid meet" version="1.0"><defs><clipPath id="319e213f89"><path d="M 5.53125 21 L 69.28125 21 L 69.28125 41 L 5.53125 41 Z M 5.53125 21 " clip-rule="nonzero"/></clipPath></defs><g clip-path="url(#319e213f89)"><path fill="#000000" d="M 21.464844 25.710938 C 12.558594 27.1875 8.53125 29.609375 8.53125 30.945312 C 8.53125 32.886719 16.742188 36.667969 33.101562 37.289062 C 35.910156 37.394531 38.933594 37.394531 41.738281 37.289062 C 58.101562 36.667969 66.3125 32.886719 66.3125 30.945312 C 66.3125 29.609375 62.28125 27.1875 53.378906 25.710938 C 53.265625 26.425781 52.648438 26.976562 51.902344 26.976562 L 43.152344 26.976562 C 42.328125 26.976562 41.65625 26.304688 41.65625 25.476562 L 41.65625 24.605469 C 38.78125 24.492188 36.0625 24.492188 33.183594 24.605469 L 33.183594 25.476562 C 33.183594 26.304688 32.515625 26.976562 31.691406 26.976562 L 22.941406 26.976562 C 22.195312 26.976562 21.578125 26.425781 21.464844 25.710938 Z M 37.421875 40.367188 C 35.914062 40.367188 34.429688 40.339844 32.988281 40.285156 C 20.328125 39.804688 5.542969 37.066406 5.542969 30.945312 C 5.542969 25.714844 16.3125 23.402344 22.730469 22.484375 C 23.15625 22.421875 23.59375 22.554688 23.917969 22.839844 C 24.246094 23.121094 24.433594 23.535156 24.433594 23.96875 L 24.433594 23.976562 L 30.195312 23.976562 L 30.195312 23.171875 C 30.195312 22.371094 30.820312 21.714844 31.617188 21.675781 C 35.5625 21.472656 39.277344 21.472656 43.226562 21.675781 C 44.019531 21.714844 44.644531 22.371094 44.644531 23.171875 L 44.644531 23.976562 L 50.40625 23.96875 C 50.40625 23.535156 50.59375 23.121094 50.921875 22.839844 C 51.25 22.554688 51.683594 22.421875 52.113281 22.484375 C 58.53125 23.402344 69.300781 25.714844 69.300781 30.945312 C 69.300781 37.066406 54.515625 39.804688 41.851562 40.285156 C 40.410156 40.339844 38.929688 40.367188 37.421875 40.367188 " fill-opacity="1" fill-rule="nonzero"/></g><path fill="#000000" d="M 37.421875 74.949219 C 35.34375 74.949219 33.265625 74.378906 31.410156 73.246094 C 30.964844 72.972656 30.695312 72.488281 30.695312 71.96875 L 30.695312 62.101562 L 22.941406 58.003906 C 14.304688 53.441406 8.941406 44.527344 8.941406 34.738281 C 8.941406 33.910156 9.609375 33.242188 10.433594 33.242188 C 11.261719 33.242188 11.929688 33.910156 11.929688 34.738281 C 11.929688 43.410156 16.683594 51.3125 24.332031 55.351562 L 32.882812 59.871094 C 33.375 60.128906 33.683594 60.640625 33.683594 61.195312 L 33.683594 71.082031 C 36.046875 72.238281 38.792969 72.238281 41.160156 71.082031 L 41.160156 61.195312 C 41.160156 60.640625 41.46875 60.128906 41.957031 59.871094 L 50.507812 55.351562 C 58.160156 51.3125 62.914062 43.410156 62.914062 34.738281 C 62.914062 33.910156 63.582031 33.242188 64.40625 33.242188 C 65.230469 33.242188 65.902344 33.910156 65.902344 34.738281 C 65.902344 44.527344 60.539062 53.441406 51.902344 58.003906 L 44.148438 62.101562 L 44.148438 71.96875 C 44.148438 72.488281 43.875 72.972656 43.433594 73.246094 C 41.578125 74.378906 39.5 74.949219 37.421875 74.949219 " fill-opacity="1" fill-rule="nonzero"/><path fill="#000000" d="M 34.535156 37.332031 C 36.429688 37.375 38.410156 37.375 40.308594 37.332031 L 40.308594 32.4375 L 34.535156 32.4375 Z M 37.421875 40.359375 C 35.910156 40.359375 34.433594 40.335938 32.988281 40.285156 C 32.183594 40.253906 31.546875 39.59375 31.546875 38.785156 L 31.546875 30.9375 C 31.546875 30.109375 32.214844 29.441406 33.039062 29.441406 L 41.800781 29.441406 C 42.628906 29.441406 43.296875 30.109375 43.296875 30.9375 L 43.296875 38.785156 C 43.296875 39.59375 42.660156 40.253906 41.855469 40.285156 C 40.40625 40.335938 38.933594 40.359375 37.421875 40.359375 " fill-opacity="1" fill-rule="nonzero"/><path fill="#000000" d="M 14.328125 8.800781 L 20.09375 8.800781 L 20.09375 3.019531 L 14.328125 3.019531 Z M 21.585938 11.796875 L 12.835938 11.796875 C 12.007812 11.796875 11.339844 11.128906 11.339844 10.300781 L 11.339844 1.519531 C 11.339844 0.691406 12.007812 0.0234375 12.835938 0.0234375 L 21.585938 0.0234375 C 22.410156 0.0234375 23.082031 0.691406 23.082031 1.519531 L 23.082031 10.300781 C 23.082031 11.128906 22.410156 11.796875 21.585938 11.796875 " fill-opacity="1" fill-rule="nonzero"/><path fill="#000000" d="M 34.539062 8.800781 L 40.304688 8.800781 L 40.304688 3.019531 L 34.539062 3.019531 Z M 41.796875 11.796875 L 33.042969 11.796875 C 32.21875 11.796875 31.550781 11.128906 31.550781 10.300781 L 31.550781 1.519531 C 31.550781 0.691406 32.21875 0.0234375 33.042969 0.0234375 L 41.796875 0.0234375 C 42.621094 0.0234375 43.292969 0.691406 43.292969 1.519531 L 43.292969 10.300781 C 43.292969 11.128906 42.621094 11.796875 41.796875 11.796875 " fill-opacity="1" fill-rule="nonzero"/><path fill="#000000" d="M 54.75 8.800781 L 60.515625 8.800781 L 60.515625 3.019531 L 54.75 3.019531 Z M 62.007812 11.796875 L 53.257812 11.796875 C 52.429688 11.796875 51.761719 11.128906 51.761719 10.300781 L 51.761719 1.519531 C 51.761719 0.691406 52.429688 0.0234375 53.257812 0.0234375 L 62.007812 0.0234375 C 62.832031 0.0234375 63.503906 0.691406 63.503906 1.519531 L 63.503906 10.300781 C 63.503906 11.128906 62.832031 11.796875 62.007812 11.796875 " fill-opacity="1" fill-rule="nonzero"/><path fill="#000000" d="M 44.644531 23.976562 L 50.40625 23.976562 L 50.40625 18.199219 L 44.644531 18.199219 Z M 51.902344 26.976562 L 43.152344 26.976562 C 42.328125 26.976562 41.65625 26.304688 41.65625 25.476562 L 41.65625 16.703125 C 41.65625 15.875 42.328125 15.203125 43.152344 15.203125 L 51.902344 15.203125 C 52.726562 15.203125 53.394531 15.875 53.394531 16.703125 L 53.394531 25.476562 C 53.394531 26.304688 52.726562 26.976562 51.902344 26.976562 " fill-opacity="1" fill-rule="nonzero"/><path fill="#000000" d="M 24.433594 23.976562 L 30.195312 23.976562 L 30.195312 18.199219 L 24.433594 18.199219 Z M 31.691406 26.976562 L 22.941406 26.976562 C 22.117188 26.976562 21.445312 26.304688 21.445312 25.476562 L 21.445312 16.703125 C 21.445312 15.875 22.117188 15.203125 22.941406 15.203125 L 31.691406 15.203125 C 32.515625 15.203125 33.183594 15.875 33.183594 16.703125 L 33.183594 25.476562 C 33.183594 26.304688 32.515625 26.976562 31.691406 26.976562 " fill-opacity="1" fill-rule="nonzero"/></svg>