<svg xmlns="http://www.w3.org/2000/svg" xmlns:xlink="http://www.w3.org/1999/xlink" width="100" zoomAndPan="magnify" viewBox="0 0 75 74.999997" height="100" preserveAspectRatio="xMidYMid meet" version="1.0"><defs><clipPath id="2aff2cc09b"><path d="M 1.386719 1.015625 L 73.386719 1.015625 L 73.386719 75 L 1.386719 75 Z M 1.386719 1.015625 " clip-rule="nonzero"/></clipPath></defs><g clip-path="url(#2aff2cc09b)"><path fill="#000000" d="M 37.386719 1.078125 C 47.316406 1.078125 56.308594 5.054688 62.828125 11.476562 C 69.351562 17.910156 73.386719 26.792969 73.386719 36.605469 C 73.386719 46.421875 69.351562 55.300781 62.828125 61.734375 C 56.308594 68.15625 47.316406 72.132812 37.386719 72.132812 C 34.933594 72.132812 32.527344 71.886719 30.199219 71.417969 C 28.0625 70.992188 25.992188 70.375 24.007812 69.589844 L 5.980469 75.214844 L 9.527344 59.09375 C 7.046875 56.105469 5.050781 52.714844 3.660156 49.042969 C 2.191406 45.167969 1.386719 40.976562 1.386719 36.605469 C 1.386719 26.792969 5.425781 17.910156 11.945312 11.476562 C 18.46875 5.054688 27.460938 1.078125 37.386719 1.078125 Z M 59.929688 14.445312 C 54.167969 8.765625 46.199219 5.253906 37.386719 5.253906 C 28.578125 5.253906 20.609375 8.765625 14.847656 14.445312 C 9.09375 20.117188 5.53125 27.949219 5.53125 36.605469 C 5.53125 40.464844 6.238281 44.152344 7.53125 47.558594 C 8.875 51.113281 10.851562 54.351562 13.316406 57.144531 L 14.011719 57.9375 L 11.550781 69.117188 L 24.210938 65.167969 L 24.894531 65.457031 C 26.835938 66.273438 28.875 66.902344 30.992188 67.324219 C 33.050781 67.738281 35.191406 67.957031 37.386719 67.957031 C 46.199219 67.957031 54.167969 64.445312 59.929688 58.765625 C 65.683594 53.09375 69.242188 45.261719 69.242188 36.605469 C 69.242188 27.949219 65.683594 20.117188 59.929688 14.445312 Z M 59.929688 14.445312 " fill-opacity="1" fill-rule="nonzero"/></g><path fill="#000000" d="M 34.914062 43.363281 L 32.535156 20.929688 C 32.167969 17.484375 34.75 15.71875 37.386719 15.652344 C 40.027344 15.71875 42.605469 17.484375 42.242188 20.929688 L 39.863281 43.363281 C 39.546875 46.332031 35.226562 46.332031 34.914062 43.363281 Z M 34.914062 43.363281 " fill-opacity="1" fill-rule="evenodd"/><path fill="#000000" d="M 37.386719 48.355469 C 39.710938 48.355469 41.597656 50.253906 41.597656 52.597656 C 41.597656 54.9375 39.710938 56.835938 37.386719 56.835938 C 35.0625 56.835938 33.175781 54.9375 33.175781 52.597656 C 33.175781 50.253906 35.0625 48.355469 37.386719 48.355469 Z M 37.386719 48.355469 " fill-opacity="1" fill-rule="evenodd"/></svg>